# ProBuilder 4.0.5
# https://unity3d.com/unity/features/worldbuilding/probuilder
# 2019-07-04 3:14:37 PM

mtllib ./SprayCan.mtl
o SprayCan

g SprayCan
v -0.5064545 0.976 12.58423
v -0.506453 1.21303 12.58423
v -0.5337676 0.976 12.59555
v -0.5337663 1.21303 12.59555
v -0.5450811 0.976 12.62286
v -0.5450796 1.21303 12.62286
v -0.5337675 0.976 12.65017
v -0.5337661 1.21303 12.65017
v -0.5064543 0.976 12.66149
v -0.5064528 1.21303 12.66149
v -0.4791411 0.976 12.65017
v -0.4791395 1.21303 12.65017
v -0.4678277 0.976 12.62286
v -0.4678262 1.21303 12.62286
v -0.4791413 0.976 12.59555
v -0.4791397 1.21303 12.59555
v -0.5064544 0.976 12.62286
v -0.5190967 1.245724 12.61021
v -0.5064481 1.245724 12.62286
v -0.5243353 1.245724 12.62286
v -0.5190967 1.245724 12.63551
v -0.5064481 1.245724 12.64075
v -0.4937995 1.245724 12.63551
v -0.488561 1.245724 12.62286
v -0.4937996 1.245724 12.61021
v -0.5258906 1.225275 12.6423
v -0.5339426 1.225275 12.62286
v -0.5064509 1.225275 12.65035
v -0.5258908 1.225275 12.60342
v -0.4870113 1.225275 12.60342
v -0.4789594 1.225275 12.62286
v -0.4870112 1.225275 12.6423
v -0.5064481 1.245724 12.60497
v -0.5127724 1.245724 12.60759
v -0.5001239 1.245724 12.60759
v -0.5064511 1.225275 12.59537
v -0.5161709 1.225275 12.59939
v -0.4967312 1.225275 12.59939
v -0.5224938 1.235499 12.60682
v -0.4904054 1.235499 12.60682
v -0.506452 1.226377 12.61386
v -0.5006555 1.227577 12.61594
v -0.506451 1.23441 12.61558
v -0.5122484 1.227577 12.61594
v -0.5064496 1.235499 12.6046
v -0.5161719 1.22567 12.57612
v -0.5064521 1.223657 12.57264
v -0.5064502 1.237127 12.57552
v -0.4967322 1.22567 12.57612

vt -0.1626098 -1.745713
vt -0.1626279 1.322511
vt 0.2200737 -1.745713
vt 0.2200562 1.322511
vt -0.1219951 -1.745714
vt -0.1220032 1.322509
vt 0.2606883 -1.745714
vt 0.2606809 1.322509
vt -0.1220028 -1.745715
vt -0.1219956 1.322509
vt -0.2200737 -1.74571
vt -0.2200559 1.322513
vt 0.1626097 -1.74571
vt 0.1626282 1.322513
vt -0.2606883 -1.745709
vt -0.2606812 1.322515
vt 0.1219951 -1.745709
vt 0.1220028 1.322515
vt 0.1220027 -1.745709
vt 0.121996 1.322514
vt -0.4249439 9.999659E-06
vt 0.07505608 9.999659E-06
vt -0.2784973 0.3535634
vt 0.07505608 0.50001
vt 0.08866665 0.1636576
vt -0.07505593 -7.113627E-05
vt -0.07505593 0.2314675
vt 0.4286095 0.3535634
vt -0.2387785 0.1636576
vt 0.5750561 9.955947E-06
vt -0.3065915 -7.113627E-05
vt 0.4286095 -0.3535433
vt -0.2387785 -0.1637999
vt 0.07505608 -0.49999
vt -0.07505593 -0.2316097
vt -0.2784972 -0.3535434
vt 0.08866665 -0.1637999
vt 0.2606896 0.6968482
vt -0.1219945 0.6968482
vt 0.2055352 0.9038773
vt -0.06682631 0.9038777
vt 0.220072 0.6707448
vt -0.1626121 0.6707448
vt 0.1649337 0.8777694
vt -0.1074335 0.8777674
vt 0.2606799 0.7338009
vt -0.1220042 0.7338009
vt 0.2055117 0.9408305
vt -0.06684976 0.9408301
vt 0.121997 0.7339928
vt -0.2606871 0.7339928
vt 0.06682368 0.9409924
vt -0.2055378 0.940993
vt 0.1220017 0.6970406
vt -0.2606824 0.6970406
vt 0.06685239 0.9040408
vt -0.2055091 0.9040402
vt 0.1626294 0.6708428
vt -0.2200546 0.6708428
vt 0.1074964 0.8778532
vt -0.1648707 0.8778553
vt 0.2055362 1.216235
vt -0.0668253 1.216235
vt 0.1579748 1.504795
vt -0.01923489 1.504797
vt 0.164929 1.20011
vt -0.1074381 1.20011
vt 0.1173892 1.488663
vt -0.05982727 1.488662
vt 0.06685135 1.216396
vt -0.2055101 1.216396
vt 0.01928931 1.50493
vt -0.1579204 1.504928
vt 0.1075011 1.200194
vt -0.164866 1.200194
vt 0.05995872 1.488734
vt -0.1172578 1.488736
vt 0.1564796 -7.113627E-05
vt 0.1225731 0.08179323
vt 0.1225731 -0.08193551
vt 0.2200587 0.7599698
vt -0.1626255 0.7599688
vt -0.1074877 0.9669936
vt 0.0286959 0.9669929
vt 0.1648795 0.9669923
vt 0.1626081 0.7600446
vt -0.220076 0.7600456
vt -0.1649425 0.9670559
vt -0.02875891 0.9670566
vt 0.1074247 0.9670572
vt 0.2055083 1.2391
vt -0.06685317 1.239101
vt -0.04307197 1.38338
vt -0.01929077 1.52766
vt 0.1579189 1.527661
vt 0.0668271 1.239264
vt -0.2055344 1.239263
vt -0.1579733 1.527797
vt 0.01923635 1.527796
vt 0.04303173 1.38353
vt -0.01243229 1.45714
vt -0.07593549 1.482006
vt -0.005768104 1.563272
vt 0.06721837 1.472999
vt -0.1660744 1.332632
vt -0.2800471 1.357122
vt -0.2287238 1.493639
vt -0.0299599 1.47173
vt -0.1774005 1.630157
vt -0.103243 1.614223
vt -0.02908546 1.598289
vt 0.05764639 1.604248
vt 0.1443783 1.610207
vt 0.1794376 1.468334
vt 0.2144969 1.326462
vt 0.08119766 1.317302
vt -0.2537679 0.1361537
vt -0.3058739 0.01033268
vt -0.5550577 0.1361661
vt -0.5997419 0.01016288
vt -0.1610751 1.191133
vt -0.2348842 1.011006
vt -0.5370233 1.219815
vt -0.5357285 1.025316
vt -0.1749296 0.0439813
vt -0.1229477 -0.08189105
vt -0.4699397 0.04399365
vt -0.4230709 -0.08110004
vt 0.2306642 0.9940915
vt 0.1612739 1.175941
vt 0.5318722 1.001111
vt 0.5376772 1.195398
vt 0.4309403 0.3970025
vt 0.4776904 0.2690944
vt -0.08503871 0.3453724
vt -0.05715628 0.2690944
vt 0.5368484 1.265383
vt 0.5363026 1.070717
vt 0.01908861 1.219217
vt 0.01876103 1.103131
vt 0.4776902 -0.2691371
vt 0.4309401 -0.3970452
vt -0.05715648 -0.2691371
vt -0.08503892 -0.3454151
vt -0.5363069 1.070894
vt -0.5368532 1.265529
vt -0.01876487 1.103303
vt -0.01909253 1.219373

vn -9.677334E-07 6.275737E-12 -1
vn -0.7071069 4.167799E-06 -0.7071066
vn -1 6.160875E-06 2.806427E-06
vn -0.7071058 4.33035E-06 0.7071078
vn 5.806399E-07 -2.604344E-08 1
vn 0.7071072 -4.672963E-06 0.7071064
vn 1 -6.475205E-06 -2.806427E-06
vn 0.7071055 -4.591673E-06 -0.707108
vn 0 -1 0
vn 0 1 0
vn -0.7073174 0.6433234 0.2929801
vn -0.2929876 0.6432942 0.7073407
vn -0.7073118 0.6433325 -0.2929732
vn 0.707418 0.6431933 -0.2930225
vn 0.7074119 0.6432031 0.2930154
vn 0.2929974 0.6432644 0.7073637
vn 0.2930129 0.6432501 0.7073703
vn -0.8474973 0.3981501 0.3510338
vn -0.8475001 0.3981703 0.3510044
vn -0.3510378 0.3981071 0.8475159
vn 0.8475674 0.3979647 0.3510748
vn 0.3510895 0.3980148 0.8475378
vn -0.292992 0.6433147 -0.7073202
vn -0.2930112 0.6432894 -0.7073353
vn 0.2930145 0.643244 -0.7073752
vn 0.292987 0.6432375 -0.7073926
vn -0.8474963 0.3981516 -0.3510347
vn 0.8475726 0.3979623 -0.351065
vn 8.672476E-06 0.2000651 -0.9346913
vn 0.2938216 0.2000312 -0.9346959
vn -0.2938043 0.200099 -0.9346868
vn 0.2332577 0.4668647 -0.8420173
vn 0.3510145 0.398034 -0.8475599
vn 0.115501 0.5356954 -0.8364747
vn 0.2424855 0.2994992 -0.908992
vn 0.3509807 0.3979639 -0.8476068
vn 0.1339903 0.2010344 -0.9703771
vn 0.3824852 0.03353509 -0.9233529
vn 6.854534E-07 0.03358854 -0.9233512
vn -0.3824838 0.033642 -0.9233496
vn -0.2425253 0.2996017 -0.9089319
vn -0.3510618 0.3981327 -0.847494
vn -0.1339888 0.2010707 -0.9703698
vn -0.2332901 0.4668904 -0.8419895
vn -0.3510817 0.3980619 -0.8475189
vn -0.1154985 0.5357189 -0.83646
vn -0.007024312 -0.9998316 -0.01695684
vn -0.09261371 -0.9906705 0.02646071
vn -0.1782031 -0.9815094 0.06987826
vn -0.7337813 0.6783229 0.03798789
vn -0.7479808 0.662797 0.0244994
vn -0.7621804 0.647271 0.0110109
vn -0.0294021 -0.9970445 0.07097752
vn 0.08953453 -0.9874661 0.02719173
vn 0.2084711 -0.9778877 -0.01659406
vn 0.727715 0.6857817 0.01159918
vn 0.7444545 0.6666465 0.02391579
vn 0.761194 0.6475114 0.0362324
vn 0.1800411 0.9815248 -0.0647632
vn 0.760635 -0.647693 -0.04391064
vn -0.1800411 0.9815249 -0.06476169
vn -0.7607582 -0.6475472 -0.04392829

g SprayCan_0
usemtl Blue
f 1/21/9 17/22/9 3/23/9
f 3/23/9 17/22/9 5/24/9
f 5/24/9 17/22/9 7/28/9
f 7/28/9 17/22/9 9/30/9
f 9/30/9 17/22/9 11/32/9
f 11/32/9 17/22/9 13/34/9
f 13/34/9 17/22/9 15/36/9
f 15/36/9 17/22/9 1/21/9
f 4/4/2 2/2/1 1/1/1
f 1/1/1 3/3/2 4/4/2
f 6/8/3 4/6/2 3/5/2
f 3/5/2 5/7/3 6/8/3
f 8/8/4 6/10/3 5/9/3
f 5/9/3 7/7/4 8/8/4
f 10/4/5 8/2/4 7/1/4
f 7/1/4 9/3/5 10/4/5
f 12/14/6 10/12/5 9/11/5
f 9/11/5 11/13/6 12/14/6
f 14/18/7 12/16/6 11/15/6
f 11/15/6 13/17/7 14/18/7
f 16/20/8 14/16/7 13/15/7
f 13/15/7 15/19/8 16/20/8
f 2/14/1 16/12/8 15/11/8
f 15/11/8 1/13/1 2/14/1

g SprayCan_1
usemtl White
f 20/27/10 19/26/10 18/25/10
f 21/29/10 19/26/10 20/27/10
f 22/31/10 19/26/10 21/29/10
f 23/33/10 19/26/10 22/31/10
f 24/35/10 19/26/10 23/33/10
f 25/37/10 19/26/10 24/35/10
f 29/85/24 37/84/23 4/81/23
f 4/81/23 37/84/23 2/82/23
f 36/83/24 2/82/23 37/84/23
f 36/90/25 38/89/25 2/86/25
f 2/86/25 38/89/25 16/87/26
f 38/89/25 30/88/26 16/87/26
f 20/95/27 18/94/27 39/93/27
f 27/91/27 20/95/27 39/93/27
f 39/93/27 29/92/27 27/91/27
f 31/97/28 30/96/28 40/100/28
f 40/100/28 24/98/28 31/97/28
f 40/100/28 25/99/28 24/98/28
f 27/41/11 6/39/11 8/38/11
f 8/38/11 26/40/11 27/41/11
f 26/45/12 8/43/12 10/42/12
f 10/42/12 28/44/12 26/45/12
f 29/49/13 4/47/13 6/46/13
f 6/46/13 27/48/13 29/49/13
f 31/53/14 14/51/14 16/50/14
f 16/50/14 30/52/14 31/53/14
f 32/57/15 12/55/15 14/54/15
f 14/54/15 31/56/15 32/57/15
f 28/61/17 10/59/17 12/58/16
f 12/58/16 32/60/17 28/61/17
f 20/65/19 27/63/18 26/62/18
f 26/62/18 21/64/18 20/65/19
f 21/69/20 26/67/20 28/66/20
f 28/66/20 22/68/20 21/69/20
f 23/73/21 32/71/21 31/70/21
f 31/70/21 24/72/21 23/73/21
f 22/77/22 28/75/22 32/74/22
f 32/74/22 23/76/22 22/77/22
f 18/25/10 19/26/10 33/78/10
f 33/78/10 34/79/10 18/25/10
f 19/26/10 25/37/10 35/80/10
f 35/80/10 33/78/10 19/26/10
f 42/102/30 41/101/29 44/104/31
f 44/104/31 43/103/29 42/102/30
f 30/106/33 38/105/32 45/108/34
f 45/108/34 40/107/32 30/106/33
f 25/109/36 40/107/35 45/108/37
f 45/108/37 35/110/35 25/109/36
f 35/110/38 45/108/39 34/112/40
f 34/112/40 33/111/39 35/110/38
f 39/114/41 18/113/42 34/112/41
f 34/112/41 45/108/43 39/114/41
f 45/108/46 37/116/44 29/115/45
f 29/115/45 39/114/44 45/108/46
f 47/120/49 36/118/48 37/117/47
f 37/117/47 46/119/48 47/120/49
f 46/124/52 37/122/51 45/121/50
f 45/121/50 48/123/51 46/124/52
f 49/128/55 38/126/54 36/125/53
f 36/125/53 47/127/54 49/128/55
f 48/132/58 45/130/57 38/129/56
f 38/129/56 49/131/57 48/132/58
f 41/136/59 47/134/59 46/133/59
f 46/133/59 44/135/59 41/136/59
f 44/140/60 46/138/60 48/137/60
f 48/137/60 43/139/60 44/140/60
f 42/144/61 49/142/61 47/141/61
f 47/141/61 41/143/61 42/144/61
f 43/148/62 48/146/62 49/145/62
f 49/145/62 42/147/62 43/148/62

